<mxfile host="app.diagrams.net" modified="2024-06-06T14:43:16.011Z" agent="Mozilla/5.0 (Macintosh; Intel Mac OS X 10_15_7) AppleWebKit/605.1.15 (KHTML, like Gecko) Version/17.5 Safari/605.1.15" etag="xroLQ60FvNA0gbID8yL6" version="24.4.15" type="github">
  <diagram name="Page-1" id="rxr-hx7VIc_0QiqgKNQM">
    <mxGraphModel dx="1434" dy="827" grid="1" gridSize="10" guides="1" tooltips="1" connect="1" arrows="1" fold="1" page="1" pageScale="1" pageWidth="850" pageHeight="1100" math="0" shadow="0">
      <root>
        <mxCell id="0" />
        <mxCell id="1" parent="0" />
        <mxCell id="SPCyMe39Lzar1Hcm_dn9-1" value="&lt;b&gt;Customers&lt;/b&gt;" style="swimlane;fontStyle=0;childLayout=stackLayout;horizontal=1;startSize=26;fillColor=none;horizontalStack=0;resizeParent=1;resizeParentMax=0;resizeLast=0;collapsible=1;marginBottom=0;html=1;" vertex="1" parent="1">
          <mxGeometry x="340" y="40" width="190" height="160" as="geometry" />
        </mxCell>
        <mxCell id="SPCyMe39Lzar1Hcm_dn9-2" value="CustomerID INT" style="text;strokeColor=none;fillColor=none;align=left;verticalAlign=top;spacingLeft=4;spacingRight=4;overflow=hidden;rotatable=0;points=[[0,0.5],[1,0.5]];portConstraint=eastwest;whiteSpace=wrap;html=1;" vertex="1" parent="SPCyMe39Lzar1Hcm_dn9-1">
          <mxGeometry y="26" width="190" height="26" as="geometry" />
        </mxCell>
        <mxCell id="SPCyMe39Lzar1Hcm_dn9-3" value="FullName VARCHAR(255)" style="text;strokeColor=none;fillColor=none;align=left;verticalAlign=top;spacingLeft=4;spacingRight=4;overflow=hidden;rotatable=0;points=[[0,0.5],[1,0.5]];portConstraint=eastwest;whiteSpace=wrap;html=1;" vertex="1" parent="SPCyMe39Lzar1Hcm_dn9-1">
          <mxGeometry y="52" width="190" height="26" as="geometry" />
        </mxCell>
        <mxCell id="SPCyMe39Lzar1Hcm_dn9-24" value="ContactNumber VARCHAR(45)" style="text;strokeColor=none;fillColor=none;align=left;verticalAlign=top;spacingLeft=4;spacingRight=4;overflow=hidden;rotatable=0;points=[[0,0.5],[1,0.5]];portConstraint=eastwest;whiteSpace=wrap;html=1;" vertex="1" parent="SPCyMe39Lzar1Hcm_dn9-1">
          <mxGeometry y="78" width="190" height="22" as="geometry" />
        </mxCell>
        <mxCell id="SPCyMe39Lzar1Hcm_dn9-25" value="Email VARCHAR(255)" style="text;strokeColor=none;fillColor=none;align=left;verticalAlign=top;spacingLeft=4;spacingRight=4;overflow=hidden;rotatable=0;points=[[0,0.5],[1,0.5]];portConstraint=eastwest;whiteSpace=wrap;html=1;" vertex="1" parent="SPCyMe39Lzar1Hcm_dn9-1">
          <mxGeometry y="100" width="190" height="30" as="geometry" />
        </mxCell>
        <mxCell id="SPCyMe39Lzar1Hcm_dn9-4" value="Indexes" style="text;strokeColor=none;fillColor=none;align=left;verticalAlign=top;spacingLeft=4;spacingRight=4;overflow=hidden;rotatable=0;points=[[0,0.5],[1,0.5]];portConstraint=eastwest;whiteSpace=wrap;html=1;" vertex="1" parent="SPCyMe39Lzar1Hcm_dn9-1">
          <mxGeometry y="130" width="190" height="30" as="geometry" />
        </mxCell>
        <mxCell id="SPCyMe39Lzar1Hcm_dn9-6" value="&lt;b&gt;Orders&lt;/b&gt;" style="swimlane;fontStyle=0;childLayout=stackLayout;horizontal=1;startSize=26;fillColor=none;horizontalStack=0;resizeParent=1;resizeParentMax=0;resizeLast=0;collapsible=1;marginBottom=0;html=1;" vertex="1" parent="1">
          <mxGeometry x="20" y="240" width="200" height="254" as="geometry">
            <mxRectangle x="20" y="240" width="80" height="30" as="alternateBounds" />
          </mxGeometry>
        </mxCell>
        <mxCell id="SPCyMe39Lzar1Hcm_dn9-7" value="OrderID INT" style="text;strokeColor=none;fillColor=none;align=left;verticalAlign=top;spacingLeft=4;spacingRight=4;overflow=hidden;rotatable=0;points=[[0,0.5],[1,0.5]];portConstraint=eastwest;whiteSpace=wrap;html=1;" vertex="1" parent="SPCyMe39Lzar1Hcm_dn9-6">
          <mxGeometry y="26" width="200" height="26" as="geometry" />
        </mxCell>
        <mxCell id="SPCyMe39Lzar1Hcm_dn9-8" value="CustomerID INT" style="text;strokeColor=none;fillColor=none;align=left;verticalAlign=top;spacingLeft=4;spacingRight=4;overflow=hidden;rotatable=0;points=[[0,0.5],[1,0.5]];portConstraint=eastwest;whiteSpace=wrap;html=1;" vertex="1" parent="SPCyMe39Lzar1Hcm_dn9-6">
          <mxGeometry y="52" width="200" height="26" as="geometry" />
        </mxCell>
        <mxCell id="SPCyMe39Lzar1Hcm_dn9-9" value="ProductID INT" style="text;strokeColor=none;fillColor=none;align=left;verticalAlign=top;spacingLeft=4;spacingRight=4;overflow=hidden;rotatable=0;points=[[0,0.5],[1,0.5]];portConstraint=eastwest;whiteSpace=wrap;html=1;" vertex="1" parent="SPCyMe39Lzar1Hcm_dn9-6">
          <mxGeometry y="78" width="200" height="22" as="geometry" />
        </mxCell>
        <mxCell id="SPCyMe39Lzar1Hcm_dn9-26" value="DeliveryID INT" style="text;strokeColor=none;fillColor=none;align=left;verticalAlign=top;spacingLeft=4;spacingRight=4;overflow=hidden;rotatable=0;points=[[0,0.5],[1,0.5]];portConstraint=eastwest;whiteSpace=wrap;html=1;" vertex="1" parent="SPCyMe39Lzar1Hcm_dn9-6">
          <mxGeometry y="100" width="200" height="22" as="geometry" />
        </mxCell>
        <mxCell id="SPCyMe39Lzar1Hcm_dn9-27" value="Quantity INT" style="text;strokeColor=none;fillColor=none;align=left;verticalAlign=top;spacingLeft=4;spacingRight=4;overflow=hidden;rotatable=0;points=[[0,0.5],[1,0.5]];portConstraint=eastwest;whiteSpace=wrap;html=1;" vertex="1" parent="SPCyMe39Lzar1Hcm_dn9-6">
          <mxGeometry y="122" width="200" height="22" as="geometry" />
        </mxCell>
        <mxCell id="SPCyMe39Lzar1Hcm_dn9-28" value="TotalCost DECIMAL" style="text;strokeColor=none;fillColor=none;align=left;verticalAlign=top;spacingLeft=4;spacingRight=4;overflow=hidden;rotatable=0;points=[[0,0.5],[1,0.5]];portConstraint=eastwest;whiteSpace=wrap;html=1;" vertex="1" parent="SPCyMe39Lzar1Hcm_dn9-6">
          <mxGeometry y="144" width="200" height="22" as="geometry" />
        </mxCell>
        <mxCell id="SPCyMe39Lzar1Hcm_dn9-29" value="OrderPriority VARCHAR(45)" style="text;strokeColor=none;fillColor=none;align=left;verticalAlign=top;spacingLeft=4;spacingRight=4;overflow=hidden;rotatable=0;points=[[0,0.5],[1,0.5]];portConstraint=eastwest;whiteSpace=wrap;html=1;" vertex="1" parent="SPCyMe39Lzar1Hcm_dn9-6">
          <mxGeometry y="166" width="200" height="22" as="geometry" />
        </mxCell>
        <mxCell id="SPCyMe39Lzar1Hcm_dn9-30" value="Discount DECIMAL" style="text;strokeColor=none;fillColor=none;align=left;verticalAlign=top;spacingLeft=4;spacingRight=4;overflow=hidden;rotatable=0;points=[[0,0.5],[1,0.5]];portConstraint=eastwest;whiteSpace=wrap;html=1;" vertex="1" parent="SPCyMe39Lzar1Hcm_dn9-6">
          <mxGeometry y="188" width="200" height="22" as="geometry" />
        </mxCell>
        <mxCell id="SPCyMe39Lzar1Hcm_dn9-31" value="S&lt;span style=&quot;white-space: pre;&quot;&gt;hipID INT&lt;/span&gt;" style="text;strokeColor=none;fillColor=none;align=left;verticalAlign=top;spacingLeft=4;spacingRight=4;overflow=hidden;rotatable=0;points=[[0,0.5],[1,0.5]];portConstraint=eastwest;whiteSpace=wrap;html=1;" vertex="1" parent="SPCyMe39Lzar1Hcm_dn9-6">
          <mxGeometry y="210" width="200" height="22" as="geometry" />
        </mxCell>
        <mxCell id="SPCyMe39Lzar1Hcm_dn9-43" value="Indexes" style="text;strokeColor=none;fillColor=none;align=left;verticalAlign=top;spacingLeft=4;spacingRight=4;overflow=hidden;rotatable=0;points=[[0,0.5],[1,0.5]];portConstraint=eastwest;whiteSpace=wrap;html=1;" vertex="1" parent="SPCyMe39Lzar1Hcm_dn9-6">
          <mxGeometry y="232" width="200" height="22" as="geometry" />
        </mxCell>
        <mxCell id="SPCyMe39Lzar1Hcm_dn9-56" style="rounded=0;orthogonalLoop=1;jettySize=auto;html=1;exitX=0.468;exitY=0.009;exitDx=0;exitDy=0;entryX=1;entryY=0.5;entryDx=0;entryDy=0;elbow=vertical;endArrow=ERoneToMany;endFill=0;dashed=1;exitPerimeter=0;startArrow=ERmandOne;startFill=0;dashPattern=12 12;" edge="1" parent="1" source="SPCyMe39Lzar1Hcm_dn9-12">
          <mxGeometry relative="1" as="geometry">
            <mxPoint x="285" y="560" as="sourcePoint" />
            <mxPoint x="220" y="429" as="targetPoint" />
            <Array as="points">
              <mxPoint x="280" y="430" />
            </Array>
          </mxGeometry>
        </mxCell>
        <mxCell id="SPCyMe39Lzar1Hcm_dn9-12" value="Products" style="swimlane;fontStyle=1;childLayout=stackLayout;horizontal=1;startSize=26;horizontalStack=0;resizeParent=1;resizeParentMax=0;resizeLast=0;collapsible=1;marginBottom=0;align=center;fontSize=14;" vertex="1" parent="1">
          <mxGeometry x="190" y="570" width="190" height="230" as="geometry" />
        </mxCell>
        <mxCell id="SPCyMe39Lzar1Hcm_dn9-13" value="ProductID INT" style="text;strokeColor=none;fillColor=none;spacingLeft=4;spacingRight=4;overflow=hidden;rotatable=0;points=[[0,0.5],[1,0.5]];portConstraint=eastwest;fontSize=12;whiteSpace=wrap;html=1;" vertex="1" parent="SPCyMe39Lzar1Hcm_dn9-12">
          <mxGeometry y="26" width="190" height="30" as="geometry" />
        </mxCell>
        <mxCell id="SPCyMe39Lzar1Hcm_dn9-14" value="ProductName VARCHAR(255)" style="text;strokeColor=none;fillColor=none;spacingLeft=4;spacingRight=4;overflow=hidden;rotatable=0;points=[[0,0.5],[1,0.5]];portConstraint=eastwest;fontSize=12;whiteSpace=wrap;html=1;" vertex="1" parent="SPCyMe39Lzar1Hcm_dn9-12">
          <mxGeometry y="56" width="190" height="30" as="geometry" />
        </mxCell>
        <mxCell id="SPCyMe39Lzar1Hcm_dn9-15" value="Amountln Stock INT" style="text;strokeColor=none;fillColor=none;spacingLeft=4;spacingRight=4;overflow=hidden;rotatable=0;points=[[0,0.5],[1,0.5]];portConstraint=eastwest;fontSize=12;whiteSpace=wrap;html=1;" vertex="1" parent="SPCyMe39Lzar1Hcm_dn9-12">
          <mxGeometry y="86" width="190" height="24" as="geometry" />
        </mxCell>
        <mxCell id="SPCyMe39Lzar1Hcm_dn9-32" value="Price DECIMAL" style="text;strokeColor=none;fillColor=none;spacingLeft=4;spacingRight=4;overflow=hidden;rotatable=0;points=[[0,0.5],[1,0.5]];portConstraint=eastwest;fontSize=12;whiteSpace=wrap;html=1;" vertex="1" parent="SPCyMe39Lzar1Hcm_dn9-12">
          <mxGeometry y="110" width="190" height="30" as="geometry" />
        </mxCell>
        <mxCell id="SPCyMe39Lzar1Hcm_dn9-33" value="Category VARCHAR(45)" style="text;strokeColor=none;fillColor=none;spacingLeft=4;spacingRight=4;overflow=hidden;rotatable=0;points=[[0,0.5],[1,0.5]];portConstraint=eastwest;fontSize=12;whiteSpace=wrap;html=1;" vertex="1" parent="SPCyMe39Lzar1Hcm_dn9-12">
          <mxGeometry y="140" width="190" height="30" as="geometry" />
        </mxCell>
        <mxCell id="SPCyMe39Lzar1Hcm_dn9-34" value="Subcategory VARCHAR(45)" style="text;strokeColor=none;fillColor=none;spacingLeft=4;spacingRight=4;overflow=hidden;rotatable=0;points=[[0,0.5],[1,0.5]];portConstraint=eastwest;fontSize=12;whiteSpace=wrap;html=1;" vertex="1" parent="SPCyMe39Lzar1Hcm_dn9-12">
          <mxGeometry y="170" width="190" height="30" as="geometry" />
        </mxCell>
        <mxCell id="SPCyMe39Lzar1Hcm_dn9-35" value="Indexes" style="text;strokeColor=none;fillColor=none;spacingLeft=4;spacingRight=4;overflow=hidden;rotatable=0;points=[[0,0.5],[1,0.5]];portConstraint=eastwest;fontSize=12;whiteSpace=wrap;html=1;" vertex="1" parent="SPCyMe39Lzar1Hcm_dn9-12">
          <mxGeometry y="200" width="190" height="30" as="geometry" />
        </mxCell>
        <mxCell id="SPCyMe39Lzar1Hcm_dn9-16" value="DeliveryAddress" style="swimlane;fontStyle=1;childLayout=stackLayout;horizontal=1;startSize=26;horizontalStack=0;resizeParent=1;resizeParentMax=0;resizeLast=0;collapsible=1;marginBottom=0;align=center;fontSize=14;" vertex="1" parent="1">
          <mxGeometry x="520" y="570" width="200" height="206" as="geometry" />
        </mxCell>
        <mxCell id="SPCyMe39Lzar1Hcm_dn9-17" value="AddressID INT" style="text;strokeColor=none;fillColor=none;spacingLeft=4;spacingRight=4;overflow=hidden;rotatable=0;points=[[0,0.5],[1,0.5]];portConstraint=eastwest;fontSize=12;whiteSpace=wrap;html=1;" vertex="1" parent="SPCyMe39Lzar1Hcm_dn9-16">
          <mxGeometry y="26" width="200" height="30" as="geometry" />
        </mxCell>
        <mxCell id="SPCyMe39Lzar1Hcm_dn9-18" value="Street VARCHAR(255)" style="text;strokeColor=none;fillColor=none;spacingLeft=4;spacingRight=4;overflow=hidden;rotatable=0;points=[[0,0.5],[1,0.5]];portConstraint=eastwest;fontSize=12;whiteSpace=wrap;html=1;" vertex="1" parent="SPCyMe39Lzar1Hcm_dn9-16">
          <mxGeometry y="56" width="200" height="30" as="geometry" />
        </mxCell>
        <mxCell id="SPCyMe39Lzar1Hcm_dn9-19" value="PostCode VARCHAR(45)" style="text;strokeColor=none;fillColor=none;spacingLeft=4;spacingRight=4;overflow=hidden;rotatable=0;points=[[0,0.5],[1,0.5]];portConstraint=eastwest;fontSize=12;whiteSpace=wrap;html=1;" vertex="1" parent="SPCyMe39Lzar1Hcm_dn9-16">
          <mxGeometry y="86" width="200" height="24" as="geometry" />
        </mxCell>
        <mxCell id="SPCyMe39Lzar1Hcm_dn9-36" value="City VARCHAR(45)" style="text;strokeColor=none;fillColor=none;spacingLeft=4;spacingRight=4;overflow=hidden;rotatable=0;points=[[0,0.5],[1,0.5]];portConstraint=eastwest;fontSize=12;whiteSpace=wrap;html=1;" vertex="1" parent="SPCyMe39Lzar1Hcm_dn9-16">
          <mxGeometry y="110" width="200" height="24" as="geometry" />
        </mxCell>
        <mxCell id="SPCyMe39Lzar1Hcm_dn9-37" value="State VARCHAR(45)" style="text;strokeColor=none;fillColor=none;spacingLeft=4;spacingRight=4;overflow=hidden;rotatable=0;points=[[0,0.5],[1,0.5]];portConstraint=eastwest;fontSize=12;whiteSpace=wrap;html=1;" vertex="1" parent="SPCyMe39Lzar1Hcm_dn9-16">
          <mxGeometry y="134" width="200" height="24" as="geometry" />
        </mxCell>
        <mxCell id="SPCyMe39Lzar1Hcm_dn9-38" value="Country VARCHAR(45)" style="text;strokeColor=none;fillColor=none;spacingLeft=4;spacingRight=4;overflow=hidden;rotatable=0;points=[[0,0.5],[1,0.5]];portConstraint=eastwest;fontSize=12;whiteSpace=wrap;html=1;" vertex="1" parent="SPCyMe39Lzar1Hcm_dn9-16">
          <mxGeometry y="158" width="200" height="24" as="geometry" />
        </mxCell>
        <mxCell id="SPCyMe39Lzar1Hcm_dn9-39" value="Indexes" style="text;strokeColor=none;fillColor=none;spacingLeft=4;spacingRight=4;overflow=hidden;rotatable=0;points=[[0,0.5],[1,0.5]];portConstraint=eastwest;fontSize=12;whiteSpace=wrap;html=1;" vertex="1" parent="SPCyMe39Lzar1Hcm_dn9-16">
          <mxGeometry y="182" width="200" height="24" as="geometry" />
        </mxCell>
        <mxCell id="SPCyMe39Lzar1Hcm_dn9-58" style="edgeStyle=orthogonalEdgeStyle;rounded=0;orthogonalLoop=1;jettySize=auto;html=1;endArrow=ERmandOne;endFill=0;dashed=1;startArrow=ERoneToMany;startFill=0;dashPattern=12 12;exitX=0.542;exitY=1;exitDx=0;exitDy=0;exitPerimeter=0;" edge="1" parent="1" source="SPCyMe39Lzar1Hcm_dn9-42">
          <mxGeometry relative="1" as="geometry">
            <mxPoint x="735" y="520" as="sourcePoint" />
            <mxPoint x="620" y="570" as="targetPoint" />
          </mxGeometry>
        </mxCell>
        <mxCell id="SPCyMe39Lzar1Hcm_dn9-20" value="Shipping" style="swimlane;fontStyle=1;childLayout=stackLayout;horizontal=1;startSize=26;horizontalStack=0;resizeParent=1;resizeParentMax=0;resizeLast=0;collapsible=1;marginBottom=0;align=center;fontSize=14;" vertex="1" parent="1">
          <mxGeometry x="640" y="240" width="190" height="206" as="geometry" />
        </mxCell>
        <mxCell id="SPCyMe39Lzar1Hcm_dn9-21" value="ShipID INT" style="text;strokeColor=none;fillColor=none;spacingLeft=4;spacingRight=4;overflow=hidden;rotatable=0;points=[[0,0.5],[1,0.5]];portConstraint=eastwest;fontSize=12;whiteSpace=wrap;html=1;" vertex="1" parent="SPCyMe39Lzar1Hcm_dn9-20">
          <mxGeometry y="26" width="190" height="30" as="geometry" />
        </mxCell>
        <mxCell id="SPCyMe39Lzar1Hcm_dn9-22" value="ShipDate DATE" style="text;strokeColor=none;fillColor=none;spacingLeft=4;spacingRight=4;overflow=hidden;rotatable=0;points=[[0,0.5],[1,0.5]];portConstraint=eastwest;fontSize=12;whiteSpace=wrap;html=1;" vertex="1" parent="SPCyMe39Lzar1Hcm_dn9-20">
          <mxGeometry y="56" width="190" height="30" as="geometry" />
        </mxCell>
        <mxCell id="SPCyMe39Lzar1Hcm_dn9-23" value="ShipMode VATCHAR(45)" style="text;strokeColor=none;fillColor=none;spacingLeft=4;spacingRight=4;overflow=hidden;rotatable=0;points=[[0,0.5],[1,0.5]];portConstraint=eastwest;fontSize=12;whiteSpace=wrap;html=1;" vertex="1" parent="SPCyMe39Lzar1Hcm_dn9-20">
          <mxGeometry y="86" width="190" height="30" as="geometry" />
        </mxCell>
        <mxCell id="SPCyMe39Lzar1Hcm_dn9-40" value="AddressID INT" style="text;strokeColor=none;fillColor=none;spacingLeft=4;spacingRight=4;overflow=hidden;rotatable=0;points=[[0,0.5],[1,0.5]];portConstraint=eastwest;fontSize=12;whiteSpace=wrap;html=1;" vertex="1" parent="SPCyMe39Lzar1Hcm_dn9-20">
          <mxGeometry y="116" width="190" height="30" as="geometry" />
        </mxCell>
        <mxCell id="SPCyMe39Lzar1Hcm_dn9-41" value="ShipCost DECIMAL" style="text;strokeColor=none;fillColor=none;spacingLeft=4;spacingRight=4;overflow=hidden;rotatable=0;points=[[0,0.5],[1,0.5]];portConstraint=eastwest;fontSize=12;whiteSpace=wrap;html=1;" vertex="1" parent="SPCyMe39Lzar1Hcm_dn9-20">
          <mxGeometry y="146" width="190" height="30" as="geometry" />
        </mxCell>
        <mxCell id="SPCyMe39Lzar1Hcm_dn9-42" value="Indexes" style="text;strokeColor=none;fillColor=none;spacingLeft=4;spacingRight=4;overflow=hidden;rotatable=0;points=[[0,0.5],[1,0.5]];portConstraint=eastwest;fontSize=12;whiteSpace=wrap;html=1;" vertex="1" parent="SPCyMe39Lzar1Hcm_dn9-20">
          <mxGeometry y="176" width="190" height="30" as="geometry" />
        </mxCell>
        <mxCell id="SPCyMe39Lzar1Hcm_dn9-44" value="" style="endArrow=ERmandOne;dashed=1;html=1;rounded=0;entryX=-0.016;entryY=0.045;entryDx=0;entryDy=0;entryPerimeter=0;endFill=0;startArrow=ERoneToMany;startFill=0;dashPattern=12 12;" edge="1" parent="1" target="SPCyMe39Lzar1Hcm_dn9-24">
          <mxGeometry width="50" height="50" relative="1" as="geometry">
            <mxPoint x="220" y="320" as="sourcePoint" />
            <mxPoint x="320" y="120" as="targetPoint" />
            <Array as="points">
              <mxPoint x="260" y="320" />
              <mxPoint x="260" y="210" />
              <mxPoint x="260" y="120" />
            </Array>
          </mxGeometry>
        </mxCell>
        <mxCell id="SPCyMe39Lzar1Hcm_dn9-57" style="rounded=0;orthogonalLoop=1;jettySize=auto;html=1;exitX=0;exitY=0.5;exitDx=0;exitDy=0;entryX=0.995;entryY=-0.136;entryDx=0;entryDy=0;entryPerimeter=0;endArrow=ERoneToMany;endFill=0;dashed=1;edgeStyle=orthogonalEdgeStyle;startArrow=ERmandOne;startFill=0;dashPattern=12 12;jumpSize=8;" edge="1" parent="1" source="SPCyMe39Lzar1Hcm_dn9-23" target="SPCyMe39Lzar1Hcm_dn9-27">
          <mxGeometry relative="1" as="geometry" />
        </mxCell>
      </root>
    </mxGraphModel>
  </diagram>
</mxfile>
